<svg id="visual" viewBox="0 0 960 540" width="960" height="540" xmlns="http://www.w3.org/2000/svg" xmlns:xlink="http://www.w3.org/1999/xlink" version="1.1"><rect x="0" y="0" width="960" height="540" fill="#ffffff"></rect><path d="M0 429L53.3 430.7C106.7 432.3 213.3 435.7 320 405C426.7 374.3 533.3 309.7 640 303C746.7 296.3 853.3 347.7 906.7 373.3L960 399L960 0L906.7 0C853.3 0 746.7 0 640 0C533.3 0 426.7 0 320 0C213.3 0 106.7 0 53.3 0L0 0Z" fill="#8faf9a"></path><path d="M0 300L53.3 317.3C106.7 334.7 213.3 369.3 320 380C426.7 390.7 533.3 377.3 640 378.7C746.7 380 853.3 396 906.7 404L960 412L960 0L906.7 0C853.3 0 746.7 0 640 0C533.3 0 426.7 0 320 0C213.3 0 106.7 0 53.3 0L0 0Z" fill="#afbea6"></path><path d="M0 157L53.3 152.3C106.7 147.7 213.3 138.3 320 129.2C426.7 120 533.3 111 640 137.7C746.7 164.3 853.3 226.7 906.7 257.8L960 289L960 0L906.7 0C853.3 0 746.7 0 640 0C533.3 0 426.7 0 320 0C213.3 0 106.7 0 53.3 0L0 0Z" fill="#cdceb7"></path><path d="M0 76L53.3 86.5C106.7 97 213.3 118 320 109C426.7 100 533.3 61 640 43C746.7 25 853.3 28 906.7 29.5L960 31L960 0L906.7 0C853.3 0 746.7 0 640 0C533.3 0 426.7 0 320 0C213.3 0 106.7 0 53.3 0L0 0Z" fill="#e8dfcd"></path><path d="M0 150L53.3 151.3C106.7 152.7 213.3 155.3 320 144.2C426.7 133 533.3 108 640 102.7C746.7 97.3 853.3 111.7 906.7 118.8L960 126L960 0L906.7 0C853.3 0 746.7 0 640 0C533.3 0 426.7 0 320 0C213.3 0 106.7 0 53.3 0L0 0Z" fill="#fff1e6"></path></svg>