<svg id="visual" viewBox="0 0 900 600" width="900" height="600" xmlns="http://www.w3.org/2000/svg" xmlns:xlink="http://www.w3.org/1999/xlink" version="1.1"><rect x="0" y="0" width="900" height="600" fill="#ffffff"></rect><path d="M0 263L37.5 290.5C75 318 150 373 225 395.8C300 418.7 375 409.3 450 382.3C525 355.3 600 310.7 675 309.7C750 308.7 825 351.3 862.5 372.7L900 394L900 0L862.5 0C825 0 750 0 675 0C600 0 525 0 450 0C375 0 300 0 225 0C150 0 75 0 37.5 0L0 0Z" fill="#8faf9a"></path><path d="M0 242L37.5 234.8C75 227.7 150 213.3 225 225.5C300 237.7 375 276.3 450 284.8C525 293.3 600 271.7 675 249.2C750 226.7 825 203.3 862.5 191.7L900 180L900 0L862.5 0C825 0 750 0 675 0C600 0 525 0 450 0C375 0 300 0 225 0C150 0 75 0 37.5 0L0 0Z" fill="#cdceb7"></path><path d="M0 191L37.5 186C75 181 150 171 225 157.3C300 143.7 375 126.3 450 116.5C525 106.7 600 104.3 675 108.2C750 112 825 122 862.5 127L900 132L900 0L862.5 0C825 0 750 0 675 0C600 0 525 0 450 0C375 0 300 0 225 0C150 0 75 0 37.5 0L0 0Z" fill="#fff1e6"></path></svg>