<svg id="visual" viewBox="0 0 900 600" width="900" height="600" xmlns="http://www.w3.org/2000/svg" xmlns:xlink="http://www.w3.org/1999/xlink" version="1.1"><rect x="0" y="0" width="900" height="600" fill="#ffffff"></rect><path d="M0 303L37.5 327.2C75 351.3 150 399.7 225 400.2C300 400.7 375 353.3 450 341.7C525 330 600 354 675 368.8C750 383.7 825 389.3 862.5 392.2L900 395L900 0L862.5 0C825 0 750 0 675 0C600 0 525 0 450 0C375 0 300 0 225 0C150 0 75 0 37.5 0L0 0Z" fill="#8faf9a"></path><path d="M0 284L37.5 295.5C75 307 150 330 225 331.8C300 333.7 375 314.3 450 322.7C525 331 600 367 675 379.2C750 391.3 825 379.7 862.5 373.8L900 368L900 0L862.5 0C825 0 750 0 675 0C600 0 525 0 450 0C375 0 300 0 225 0C150 0 75 0 37.5 0L0 0Z" fill="#9db69f"></path><path d="M0 290L37.5 291.8C75 293.7 150 297.3 225 293.7C300 290 375 279 450 284.3C525 289.7 600 311.3 675 328.2C750 345 825 357 862.5 363L900 369L900 0L862.5 0C825 0 750 0 675 0C600 0 525 0 450 0C375 0 300 0 225 0C150 0 75 0 37.5 0L0 0Z" fill="#acbda4"></path><path d="M0 288L37.5 290.8C75 293.7 150 299.3 225 303.7C300 308 375 311 450 302.8C525 294.7 600 275.3 675 261.3C750 247.3 825 238.7 862.5 234.3L900 230L900 0L862.5 0C825 0 750 0 675 0C600 0 525 0 450 0C375 0 300 0 225 0C150 0 75 0 37.5 0L0 0Z" fill="#b9c4ab"></path><path d="M0 260L37.5 254.5C75 249 150 238 225 240C300 242 375 257 450 257.3C525 257.7 600 243.3 675 233.3C750 223.3 825 217.7 862.5 214.8L900 212L900 0L862.5 0C825 0 750 0 675 0C600 0 525 0 450 0C375 0 300 0 225 0C150 0 75 0 37.5 0L0 0Z" fill="#c7cab3"></path><path d="M0 236L37.5 237.2C75 238.3 150 240.7 225 230.5C300 220.3 375 197.7 450 182.5C525 167.3 600 159.7 675 160C750 160.3 825 168.7 862.5 172.8L900 177L900 0L862.5 0C825 0 750 0 675 0C600 0 525 0 450 0C375 0 300 0 225 0C150 0 75 0 37.5 0L0 0Z" fill="#d3d2bc"></path><path d="M0 189L37.5 189.7C75 190.3 150 191.7 225 193.7C300 195.7 375 198.3 450 195.7C525 193 600 185 675 179.3C750 173.7 825 170.3 862.5 168.7L900 167L900 0L862.5 0C825 0 750 0 675 0C600 0 525 0 450 0C375 0 300 0 225 0C150 0 75 0 37.5 0L0 0Z" fill="#dfd9c5"></path><path d="M0 152L37.5 147.8C75 143.7 150 135.3 225 133.5C300 131.7 375 136.3 450 137.8C525 139.3 600 137.7 675 137.2C750 136.7 825 137.3 862.5 137.7L900 138L900 0L862.5 0C825 0 750 0 675 0C600 0 525 0 450 0C375 0 300 0 225 0C150 0 75 0 37.5 0L0 0Z" fill="#ebe1d0"></path><path d="M0 82L37.5 79.3C75 76.7 150 71.3 225 68.7C300 66 375 66 450 68.3C525 70.7 600 75.3 675 74.8C750 74.3 825 68.7 862.5 65.8L900 63L900 0L862.5 0C825 0 750 0 675 0C600 0 525 0 450 0C375 0 300 0 225 0C150 0 75 0 37.5 0L0 0Z" fill="#f5e9db"></path><path d="M0 36L37.5 34.8C75 33.7 150 31.3 225 30.8C300 30.3 375 31.7 450 35.7C525 39.7 600 46.3 675 46.7C750 47 825 41 862.5 38L900 35L900 0L862.5 0C825 0 750 0 675 0C600 0 525 0 450 0C375 0 300 0 225 0C150 0 75 0 37.5 0L0 0Z" fill="#fff1e6"></path></svg>