<svg id="visual" viewBox="0 0 900 600" width="900" height="600" xmlns="http://www.w3.org/2000/svg" xmlns:xlink="http://www.w3.org/1999/xlink" version="1.1"><rect x="0" y="0" width="900" height="600" fill="#ffffff"></rect><path d="M0 340L21.5 349C43 358 86 376 128.8 390.5C171.7 405 214.3 416 257.2 415.5C300 415 343 403 385.8 391.5C428.7 380 471.3 369 514.2 365.2C557 361.3 600 364.7 642.8 366.8C685.7 369 728.3 370 771.2 387.3C814 404.7 857 438.3 878.5 455.2L900 472L900 0L878.5 0C857 0 814 0 771.2 0C728.3 0 685.7 0 642.8 0C600 0 557 0 514.2 0C471.3 0 428.7 0 385.8 0C343 0 300 0 257.2 0C214.3 0 171.7 0 128.8 0C86 0 43 0 21.5 0L0 0Z" fill="#efcfb7"></path><path d="M0 208L21.5 222.5C43 237 86 266 128.8 283.3C171.7 300.7 214.3 306.3 257.2 286.3C300 266.3 343 220.7 385.8 211.2C428.7 201.7 471.3 228.3 514.2 253C557 277.7 600 300.3 642.8 313.7C685.7 327 728.3 331 771.2 327C814 323 857 311 878.5 305L900 299L900 0L878.5 0C857 0 814 0 771.2 0C728.3 0 685.7 0 642.8 0C600 0 557 0 514.2 0C471.3 0 428.7 0 385.8 0C343 0 300 0 257.2 0C214.3 0 171.7 0 128.8 0C86 0 43 0 21.5 0L0 0Z" fill="#f7e0ce"></path><path d="M0 145L21.5 157.7C43 170.3 86 195.7 128.8 192.3C171.7 189 214.3 157 257.2 151.3C300 145.7 343 166.3 385.8 167C428.7 167.7 471.3 148.3 514.2 132.7C557 117 600 105 642.8 102.3C685.7 99.7 728.3 106.3 771.2 119.7C814 133 857 153 878.5 163L900 173L900 0L878.5 0C857 0 814 0 771.2 0C728.3 0 685.7 0 642.8 0C600 0 557 0 514.2 0C471.3 0 428.7 0 385.8 0C343 0 300 0 257.2 0C214.3 0 171.7 0 128.8 0C86 0 43 0 21.5 0L0 0Z" fill="#fff1e6"></path></svg>