<svg id="visual" viewBox="0 0 900 600" width="900" height="600" xmlns="http://www.w3.org/2000/svg" xmlns:xlink="http://www.w3.org/1999/xlink" version="1.1"><rect x="0" y="0" width="900" height="600" fill="#ffffff"></rect><path d="M0 297L37.5 322.3C75 347.7 150 398.3 225 423.7C300 449 375 449 450 422.8C525 396.7 600 344.3 675 317.2C750 290 825 288 862.5 287L900 286L900 0L862.5 0C825 0 750 0 675 0C600 0 525 0 450 0C375 0 300 0 225 0C150 0 75 0 37.5 0L0 0Z" fill="#8faf9a"></path><path d="M0 259L37.5 258.3C75 257.7 150 256.3 225 271C300 285.7 375 316.3 450 315.7C525 315 600 283 675 274C750 265 825 279 862.5 286L900 293L900 0L862.5 0C825 0 750 0 675 0C600 0 525 0 450 0C375 0 300 0 225 0C150 0 75 0 37.5 0L0 0Z" fill="#a5b9a1"></path><path d="M0 221L37.5 218.7C75 216.3 150 211.7 225 214.2C300 216.7 375 226.3 450 230.7C525 235 600 234 675 238.8C750 243.7 825 254.3 862.5 259.7L900 265L900 0L862.5 0C825 0 750 0 675 0C600 0 525 0 450 0C375 0 300 0 225 0C150 0 75 0 37.5 0L0 0Z" fill="#b9c4ab"></path><path d="M0 181L37.5 188.3C75 195.7 150 210.3 225 215.7C300 221 375 217 450 220.8C525 224.7 600 236.3 675 229.2C750 222 825 196 862.5 183L900 170L900 0L862.5 0C825 0 750 0 675 0C600 0 525 0 450 0C375 0 300 0 225 0C150 0 75 0 37.5 0L0 0Z" fill="#cdceb7"></path><path d="M0 161L37.5 160C75 159 150 157 225 158.7C300 160.3 375 165.7 450 169.7C525 173.7 600 176.3 675 180.7C750 185 825 191 862.5 194L900 197L900 0L862.5 0C825 0 750 0 675 0C600 0 525 0 450 0C375 0 300 0 225 0C150 0 75 0 37.5 0L0 0Z" fill="#dfd9c5"></path><path d="M0 100L37.5 95.8C75 91.7 150 83.3 225 80.3C300 77.3 375 79.7 450 84.2C525 88.7 600 95.3 675 100.2C750 105 825 108 862.5 109.5L900 111L900 0L862.5 0C825 0 750 0 675 0C600 0 525 0 450 0C375 0 300 0 225 0C150 0 75 0 37.5 0L0 0Z" fill="#f0e5d5"></path><path d="M0 83L37.5 83.3C75 83.7 150 84.3 225 86C300 87.7 375 90.3 450 83.2C525 76 600 59 675 57.3C750 55.7 825 69.3 862.5 76.2L900 83L900 0L862.5 0C825 0 750 0 675 0C600 0 525 0 450 0C375 0 300 0 225 0C150 0 75 0 37.5 0L0 0Z" fill="#fff1e6"></path></svg>